<svg 
    xmlns="http://www.w3.org/2000/svg"
    viewBox="0 0 48 48"
    id="vector">
    <path
        id="path"
        d="M 6 22.5 L 6 6 L 22.5 6 L 22.5 22.5 Z M 6 42 L 6 25.5 L 22.5 25.5 L 22.5 42 Z M 25.5 22.5 L 25.5 6 L 42 6 L 42 22.5 Z M 25.5 42 L 25.5 25.5 L 42 25.5 L 42 42 Z M 9 19.5 L 19.5 19.5 L 19.5 9 L 9 9 Z M 28.5 19.5 L 39 19.5 L 39 9 L 28.5 9 Z M 28.5 39 L 39 39 L 39 28.5 L 28.5 28.5 Z M 9 39 L 19.5 39 L 19.5 28.5 L 9 28.5 Z M 28.5 19.5 Z M 28.5 28.5 Z M 19.5 28.5 Z M 19.5 19.5 Z"
        fill="black"/>
</svg>
